<svg width="63" height="20" viewBox="0 0 63 20" fill="none" xmlns="http://www.w3.org/2000/svg">
<g clip-path="url(#clip0_1_1502)">
<path d="M17.5621 14.1995C17.5621 15.8034 17.0262 17.1469 15.9543 18.23C14.8835 19.3128 13.5517 19.8544 11.9588 19.8547H7.26351V12.1803H10.2941V17.0588H11.9588C12.761 17.0588 13.4147 16.7973 13.9198 16.2743C14.4256 15.7531 14.6782 15.0615 14.6774 14.1995C14.6774 13.3374 14.4249 12.645 13.9198 12.1224C13.415 11.6002 12.7614 11.339 11.9588 11.339H5.59888C4.70843 11.3519 3.8279 11.1544 3.03171 10.7632C2.98045 10.7381 2.92919 10.7108 2.87906 10.6835C2.4074 10.4243 1.97748 10.0981 1.6033 9.71543C0.587402 8.6969 0.0128468 7.33239 0 5.90773L0 5.46954C0.0445831 3.95847 0.579033 2.68597 1.60335 1.65203C2.67408 0.569288 4.00593 0.027725 5.59888 0.0273438H10.2941V7.70286H7.26351V2.82331H5.59888C4.79665 2.82331 4.14299 3.08444 3.63789 3.6067C3.13204 4.12899 2.87911 4.82097 2.87911 5.68264C2.87911 6.54578 3.13204 7.23812 3.63789 7.75965C4.14261 8.28194 4.79628 8.54344 5.59888 8.54416H11.9588C13.5521 8.54416 14.8839 9.085 15.9543 10.1667C17.0262 11.2495 17.5621 12.5937 17.5621 14.1995Z" fill="#4A4A4A"/>
<path d="M28.456 0H25.7472L22.877 8.52921H25.2875L25.6603 7.29853H28.5554L28.9282 8.52921H31.3264L28.456 0ZM26.2319 5.42217L27.1017 2.52225L27.9839 5.42217H26.2319Z" fill="#E97522"/>
<path d="M35.5013 7.11754e-09H31.96V5.66237H34.2462V2.10794H35.5013C35.7763 2.09835 36.0503 2.14606 36.3052 2.24793C36.5601 2.3498 36.79 2.50351 36.9799 2.69892C37.3608 3.09297 37.5513 3.61486 37.5515 4.2646C37.5515 4.91453 37.3609 5.43642 36.9799 5.83028C36.7901 6.02572 36.5601 6.17945 36.3052 6.28132C36.0503 6.38319 35.7763 6.43089 35.5013 6.42126H31.96V8.52921H35.5013C36.7022 8.52921 37.7066 8.12102 38.5144 7.30464C39.3222 6.48826 39.726 5.47492 39.7259 4.2646C39.7259 3.05435 39.322 2.04101 38.5144 1.22457C37.7067 0.408127 36.7023 -6.2237e-05 35.5013 7.11754e-09Z" fill="#E97522"/>
<path d="M44.2981 7.11754e-09H40.7568V2.10794H44.2981C44.5732 2.09835 44.8472 2.14606 45.1021 2.24793C45.357 2.3498 45.5869 2.50351 45.7768 2.69892C46.1577 3.093 46.3482 3.61489 46.3483 4.2646C46.3483 4.91453 46.1578 5.43642 45.7768 5.83028C45.5869 6.02572 45.357 6.17945 45.1021 6.28132C44.8472 6.38319 44.5732 6.43088 44.2981 6.42126H43.0431V2.86684H40.7568V8.52921H44.2981C45.4991 8.52921 46.5034 8.12102 47.3112 7.30464C48.119 6.48826 48.5229 5.47492 48.5227 4.2646C48.5227 3.05435 48.1189 2.04101 47.3112 1.22457C46.5036 0.408127 45.4992 -6.2237e-05 44.2981 7.11754e-09Z" fill="#E97522"/>
<path d="M26.2566 11.2879C26.6637 11.2774 27.0689 11.3463 27.4486 11.4906C27.8283 11.6349 28.175 11.8518 28.4685 12.1286C29.0648 12.6892 29.363 13.4041 29.3631 14.2732C29.3631 15.1425 29.0649 15.8574 28.4685 16.4177C28.175 16.6945 27.8283 16.9114 27.4486 17.0557C27.0689 17.2001 26.6637 17.269 26.2566 17.2584H25.101V19.8173H22.877V11.2879H26.2566ZM26.2566 15.187C26.3736 15.1895 26.4899 15.168 26.5979 15.1239C26.7059 15.0798 26.8034 15.0142 26.8841 14.9311C26.9694 14.8438 27.0359 14.7405 27.0796 14.6275C27.1234 14.5145 27.1436 14.394 27.139 14.2732C27.144 14.1533 27.124 14.0336 27.0802 13.9215C27.0363 13.8094 26.9696 13.7073 26.8841 13.6214C26.8025 13.5399 26.7047 13.4757 26.5968 13.4327C26.4889 13.3897 26.3731 13.3689 26.2566 13.3714H25.101V15.187H26.2566Z" fill="#B1B1B1"/>
<path d="M34.9055 11.2881H37.1172V19.8174H34.9055V16.5398H32.4575V19.8174H30.2334V11.2881H32.4575V14.4439H34.9055V11.2881Z" fill="#B1B1B1"/>
<path d="M45.9583 18.7146C45.0905 19.539 43.9296 20 42.7214 20C41.5132 20 40.3523 19.539 39.4845 18.7146C39.0541 18.3051 38.7144 17.8129 38.4867 17.2689C38.259 16.7248 38.1482 16.1406 38.1612 15.5526C38.1482 14.9646 38.2591 14.3804 38.4868 13.8363C38.7145 13.2923 39.0541 12.8001 39.4845 12.3906C40.3523 11.5662 41.5132 11.1052 42.7214 11.1052C43.9297 11.1052 45.0905 11.5662 45.9583 12.3906C46.3887 12.8001 46.7283 13.2923 46.956 13.8364C47.1837 14.3804 47.2945 14.9646 47.2816 15.5526C47.2946 16.1405 47.1837 16.7248 46.956 17.2689C46.7283 17.8129 46.3887 18.3051 45.9583 18.7146ZM41.0439 17.2159C41.4386 17.6285 41.9678 17.8932 42.5401 17.9643C43.1125 18.0355 43.6923 17.9087 44.1795 17.6057C44.6668 17.3027 45.031 16.8426 45.2095 16.3046C45.3879 15.7666 45.3694 15.1844 45.1572 14.6583C44.9449 14.1322 44.5522 13.6952 44.0467 13.4225C43.5412 13.1499 42.9545 13.0587 42.3877 13.1646C41.821 13.2705 41.3097 13.567 40.9419 14.0029C40.5741 14.4388 40.3729 14.9868 40.3729 15.5526C40.3624 15.8601 40.4165 16.1665 40.532 16.4527C40.6474 16.7388 40.8217 16.9986 41.0439 17.2159Z" fill="#B1B1B1"/>
<path d="M53.842 11.2881V13.396H51.6922V19.8174H49.4681V13.396H47.3184V11.2881H53.842Z" fill="#B1B1B1"/>
<path d="M61.677 18.7146C60.8092 19.539 59.6484 20 58.4402 20C57.2319 20 56.0711 19.539 55.2033 18.7146C54.7729 18.3051 54.4332 17.8129 54.2055 17.2689C53.9778 16.7248 53.8669 16.1406 53.8799 15.5526C53.867 14.9646 53.9778 14.3804 54.2055 13.8363C54.4332 13.2923 54.7729 12.8001 55.2033 12.3906C56.0711 11.5662 57.2319 11.1052 58.4401 11.1052C59.6484 11.1052 60.8092 11.5662 61.677 12.3906C62.1074 12.8001 62.4471 13.2923 62.6747 13.8364C62.9024 14.3804 63.0133 14.9646 63.0004 15.5526C63.0133 16.1405 62.9025 16.7248 62.6748 17.2689C62.4471 17.8129 62.1075 18.3051 61.677 18.7146ZM56.7627 17.2159C57.1574 17.6285 57.6865 17.8932 58.2589 17.9643C58.8313 18.0355 59.411 17.9087 59.8983 17.6057C60.3855 17.3027 60.7498 16.8426 60.9282 16.3046C61.1067 15.7666 61.0882 15.1844 60.8759 14.6583C60.6637 14.1322 60.271 13.6952 59.7654 13.4225C59.2599 13.1499 58.6732 13.0587 58.1065 13.1646C57.5397 13.2705 57.0284 13.567 56.6606 14.0029C56.2928 14.4388 56.0916 14.9868 56.0916 15.5526C56.0811 15.8601 56.1353 16.1665 56.2507 16.4527C56.3662 16.7388 56.5404 16.9986 56.7627 17.2159Z" fill="#B1B1B1"/>
</g>
<defs>
<clipPath id="clip0_1_1502">
<rect width="63" height="20" fill="white"/>
</clipPath>
</defs>
</svg>
