<svg aria-hidden="true" style="position: absolute; width: 0; height: 0; overflow: hidden;" version="1.1" xmlns="http://www.w3.org/2000/svg" xmlns:xlink="http://www.w3.org/1999/xlink">
<defs>
<symbol id="icon-stage-5" viewBox="0 0 49 32">
<path fill="#fff" style="fill: var(--color1, #fff)" d="M6.422 4.097h35.875c0.734 0 1.329 0.595 1.329 1.329v18.381c0 0.734-0.595 1.329-1.329 1.329h-35.875c-0.734 0-1.329-0.595-1.329-1.329v-18.381c0-0.734 0.595-1.329 1.329-1.329z"></path>
<path fill="#f9f4ee" style="fill: var(--color2, #f9f4ee)" d="M8.858 24.138c0 1.529-1.239 2.768-2.768 2.768s-2.768-1.239-2.768-2.768c0-1.529 1.239-2.768 2.768-2.768s2.768 1.239 2.768 2.768z"></path>
<path fill="#e97522" style="fill: var(--color3, #e97522)" d="M6.017 23.905c0.328 0 0.569 0.065 0.724 0.196 0.157 0.131 0.236 0.306 0.236 0.525 0 0.142-0.035 0.271-0.106 0.389-0.071 0.115-0.179 0.208-0.326 0.279-0.144 0.069-0.322 0.103-0.535 0.103-0.164 0-0.326-0.021-0.485-0.063-0.157-0.044-0.291-0.106-0.402-0.186l0.213-0.412c0.089 0.066 0.19 0.118 0.306 0.156 0.115 0.035 0.234 0.053 0.355 0.053 0.135 0 0.241-0.027 0.319-0.080s0.116-0.127 0.116-0.223c0-0.1-0.041-0.175-0.123-0.226-0.080-0.051-0.219-0.076-0.419-0.076h-0.595l0.12-1.309h1.418v0.432h-0.97l-0.037 0.442h0.189z"></path>
</symbol>
<symbol id="icon-stage-4" viewBox="0 0 49 32">
<path fill="#fff" style="fill: var(--color1, #fff)" d="M6.422 4.097h35.875c0.734 0 1.329 0.595 1.329 1.329v18.381c0 0.734-0.595 1.329-1.329 1.329h-35.875c-0.734 0-1.329-0.595-1.329-1.329v-18.381c0-0.734 0.595-1.329 1.329-1.329z"></path>
<path fill="#f9f4ee" style="fill: var(--color2, #f9f4ee)" d="M8.858 24.138c0 1.529-1.239 2.768-2.768 2.768s-2.768-1.239-2.768-2.768c0-1.529 1.239-2.768 2.768-2.768s2.768 1.239 2.768 2.768z"></path>
<path fill="#e97522" style="fill: var(--color3, #e97522)" d="M7.192 24.868h-0.379v0.488h-0.525v-0.488h-1.252v-0.362l1.096-1.475h0.565l-1.016 1.398h0.625v-0.435h0.508v0.435h0.379v0.438z"></path>
</symbol>
<symbol id="icon-stage-3" viewBox="0 0 49 32">
<path fill="#fff" style="fill: var(--color1, #fff)" d="M6.422 4.097h35.875c0.734 0 1.329 0.595 1.329 1.329v18.381c0 0.734-0.595 1.329-1.329 1.329h-35.875c-0.734 0-1.329-0.595-1.329-1.329v-18.381c0-0.734 0.595-1.329 1.329-1.329z"></path>
<path fill="#f9f4ee" style="fill: var(--color2, #f9f4ee)" d="M8.858 24.138c0 1.529-1.239 2.768-2.768 2.768s-2.768-1.239-2.768-2.768c0-1.529 1.239-2.768 2.768-2.768s2.768 1.239 2.768 2.768z"></path>
<path fill="#e97522" style="fill: var(--color3, #e97522)" d="M6.311 23.978c0.204 0.033 0.36 0.11 0.468 0.229 0.109 0.117 0.163 0.264 0.163 0.438 0 0.135-0.035 0.26-0.106 0.375-0.071 0.113-0.179 0.204-0.326 0.272-0.144 0.069-0.321 0.103-0.532 0.103-0.164 0-0.326-0.021-0.485-0.063-0.157-0.044-0.291-0.106-0.402-0.186l0.209-0.412c0.089 0.066 0.19 0.118 0.306 0.156 0.117 0.035 0.237 0.053 0.359 0.053 0.135 0 0.241-0.025 0.319-0.076 0.077-0.053 0.116-0.127 0.116-0.223 0-0.19-0.145-0.286-0.435-0.286h-0.246v-0.355l0.478-0.541h-0.99v-0.432h1.628v0.349l-0.525 0.598z"></path>
</symbol>
<symbol id="icon-stage-2" viewBox="0 0 49 32">
<path fill="#fff" style="fill: var(--color1, #fff)" d="M6.422 4.097h35.875c0.734 0 1.329 0.595 1.329 1.329v18.381c0 0.734-0.595 1.329-1.329 1.329h-35.875c-0.734 0-1.329-0.595-1.329-1.329v-18.381c0-0.734 0.595-1.329 1.329-1.329z"></path>
<path fill="#f9f4ee" style="fill: var(--color2, #f9f4ee)" d="M8.858 24.138c0 1.529-1.239 2.768-2.768 2.768s-2.768-1.239-2.768-2.768c0-1.529 1.239-2.768 2.768-2.768s2.768 1.239 2.768 2.768z"></path>
<path fill="#e97522" style="fill: var(--color3, #e97522)" d="M6.965 24.918v0.438h-1.757v-0.349l0.897-0.847c0.095-0.091 0.159-0.168 0.193-0.233 0.033-0.066 0.050-0.132 0.050-0.196 0-0.093-0.032-0.164-0.096-0.213-0.062-0.051-0.154-0.076-0.276-0.076-0.102 0-0.194 0.020-0.276 0.060-0.082 0.038-0.151 0.095-0.206 0.173l-0.392-0.252c0.091-0.135 0.216-0.24 0.375-0.316 0.159-0.078 0.342-0.116 0.548-0.116 0.173 0 0.323 0.029 0.452 0.086 0.131 0.055 0.231 0.135 0.302 0.239 0.073 0.102 0.11 0.223 0.11 0.362 0 0.126-0.027 0.245-0.080 0.355s-0.156 0.237-0.309 0.379l-0.535 0.505h1z"></path>
</symbol>
<symbol id="icon-stage-1" viewBox="0 0 49 32">
<path fill="#fff" style="fill: var(--color1, #fff)" d="M6.422 4.097h35.875c0.734 0 1.329 0.595 1.329 1.329v18.381c0 0.734-0.595 1.329-1.329 1.329h-35.875c-0.734 0-1.329-0.595-1.329-1.329v-18.381c0-0.734 0.595-1.329 1.329-1.329z"></path>
<path fill="#f9f4ee" style="fill: var(--color2, #f9f4ee)" d="M8.858 24.138c0 1.529-1.239 2.768-2.768 2.768s-2.768-1.239-2.768-2.768c0-1.529 1.239-2.768 2.768-2.768s2.768 1.239 2.768 2.768z"></path>
<path fill="#e97522" style="fill: var(--color3, #e97522)" d="M6.454 23.031v2.325h-0.538v-1.893h-0.465v-0.432h1.003z"></path>
</symbol>
<symbol id="icon-instagram" viewBox="0 0 33 32">
<path d="M31.487 5.517c-0.433-1.109-1.068-2.054-1.867-2.832l-0.002-0.002c-0.789-0.793-1.744-1.422-2.808-1.829l-0.055-0.018c-1.024-0.395-2.199-0.658-3.925-0.743-1.727-0.073-2.276-0.093-6.666-0.093-4.389 0-4.939 0.019-6.665 0.093-1.716 0.086-2.891 0.348-3.925 0.751-1.119 0.427-2.074 1.056-2.863 1.849l-0 0c-0.801 0.779-1.436 1.725-1.85 2.781l-0.019 0.054c-0.397 1.012-0.663 2.176-0.748 3.874-0.076 1.708-0.095 2.252-0.095 6.597 0 4.346 0.019 4.889 0.095 6.596 0.086 1.708 0.351 2.873 0.759 3.885 0.432 1.11 1.067 2.055 1.866 2.833l0.002 0.002c0.79 0.793 1.745 1.422 2.809 1.829l0.055 0.018c1.024 0.395 2.199 0.667 3.925 0.743 1.726 0.074 2.276 0.093 6.665 0.093 4.39 0 4.939-0.019 6.665-0.093 1.716-0.076 2.891-0.348 3.926-0.743 1.119-0.426 2.073-1.054 2.862-1.847l0-0c0.801-0.779 1.436-1.724 1.85-2.78l0.019-0.054c0.398-1.014 0.673-2.178 0.748-3.885 0.076-1.708 0.095-2.252 0.095-6.597 0-4.346-0.019-4.889-0.095-6.596-0.085-1.699-0.36-2.863-0.758-3.886zM16.165 24.221c-4.588 0-8.306-3.679-8.306-8.221s3.716-8.221 8.306-8.221c4.588 0 8.306 3.679 8.306 8.221s-3.716 8.221-8.306 8.221zM24.802 9.383c-0.002 0-0.005 0-0.007 0-1.065 0-1.929-0.86-1.936-1.923v-0.001c0-1.060 0.873-1.923 1.944-1.923 1.071 0 1.944 0.863 1.944 1.923-0.011 1.065-0.876 1.924-1.943 1.924-0 0-0.001 0-0.001 0h0zM21.561 15.999c0 2.947-2.409 5.331-5.386 5.331s-5.385-2.385-5.385-5.331c0-2.946 2.408-5.331 5.385-5.331 2.968 0 5.385 2.385 5.385 5.331z"></path>
</symbol>
<symbol id="icon-facebook" viewBox="0 0 24 32">
<path d="M15.261 8.433v3.748h7.303l-1.166 5.781h-6.137v14.039h-8.229v-14.039h-6.692v-5.781h6.692v-4.403c0-5.014 3.929-7.778 9.953-7.778 2.883 0 5.894 0.394 5.894 0.394v4.916h-3.327c-3.271 0-4.291 1.54-4.291 3.123z"></path>
</symbol>
<symbol id="icon-twitter" viewBox="0 0 35 32">
<path d="M30.684 5.721c1.513-0.196 2.886-0.617 4.147-1.231l-0.079 0.035c-0.967 1.534-2.144 2.835-3.508 3.907l-0.033 0.025c0.011 0.322 0.022 0.654 0.022 0.986 0 10.024-7.135 21.587-20.18 21.587-4.007 0-7.734-1.251-10.871-3.411 0.559 0.066 1.118 0.099 1.688 0.099 3.322 0 6.378-1.218 8.81-3.245-3.106-0.066-5.725-2.26-6.626-5.272 0.435 0.088 0.881 0.132 1.335 0.132 0.653 0 1.274-0.088 1.875-0.265-3.241-0.698-5.694-3.766-5.694-7.444v-0.099c0.918 0.556 2.018 0.903 3.195 0.952l0.013 0c-1.905-1.363-3.158-3.688-3.158-6.313 0-1.385 0.353-2.692 0.963-3.81 3.499 4.596 8.728 7.609 14.618 7.929-0.118-0.51-0.185-1.097-0.185-1.698 0-0.010 0-0.021 0-0.031v0.002c0-4.188 3.178-7.587 7.092-7.587 2.039 0 3.882 0.919 5.176 2.392 1.705-0.371 3.212-1.007 4.559-1.871l-0.055 0.033c-0.519 1.772-1.636 3.255-3.106 4.198z"></path>
</symbol>
<symbol id="icon-telegram" viewBox="0 0 40 32">
<path d="M39.948 3.009c-0.097 1.304-0.908 5.862-1.707 10.782l-2.517 14.604s-0.197 2.143-1.915 2.505c-1.707 0.375-4.532-1.304-5.035-1.678-0.405-0.283-7.553-4.467-10.169-6.507-0.699-0.557-1.51-1.679 0.098-2.971 3.623-3.073 7.957-6.882 10.573-9.298 1.204-1.111 2.42-3.719-2.616-0.556l-14.195 8.833s-1.609 0.929-4.631 0.090c-3.021-0.839-6.543-1.948-6.543-1.948s-2.419-1.395 1.707-2.88l23.467-8.923c2.322-0.929 10.169-3.899 10.169-3.899s3.623-1.304 3.315 1.848z"></path>
</symbol>
<symbol id="icon-logo" viewBox="0 0 100 32">
<path fill="#4a4a4a" style="fill: var(--color1, #4a4a4a)" d="M27.735 22.719c0 2.566-0.847 4.716-2.539 6.449-1.691 1.732-3.795 2.599-6.31 2.599h-7.415v-12.279h4.786v7.806h2.629c1.267 0 2.299-0.419 3.097-1.256 0.799-0.834 1.198-1.94 1.197-3.32 0-1.379-0.399-2.487-1.197-3.323s-1.829-1.254-3.096-1.254h-10.044c-0.039 0.001-0.085 0.001-0.132 0.001-1.429 0-2.779-0.34-3.972-0.945l0.050 0.023c-0.87-0.453-1.614-1.013-2.253-1.674l-0.002-0.002c-1.547-1.568-2.509-3.717-2.532-6.090l-0-0.004v-0.701c0.070-2.417 0.915-4.454 2.532-6.108 1.691-1.732 3.794-2.598 6.31-2.599h7.414v12.281h-4.786v-7.807h-2.629c-1.267 0-2.299 0.418-3.097 1.253-0.799 0.836-1.199 1.943-1.199 3.322 0 1.381 0.4 2.488 1.199 3.323 0.797 0.835 1.829 1.254 3.097 1.255h10.043c2.516 0 4.62 0.866 6.31 2.596 1.693 1.733 2.539 3.884 2.539 6.452z"></path>
<path fill="#e97522" style="fill: var(--color2, #e97522)" d="M44.939 0h-4.278l-4.532 13.647h3.806l0.589-1.969h4.572l0.589 1.969h3.788l-4.533-13.647zM41.427 8.675l1.373-4.64 1.393 4.64h-2.767zM56.065 0h-5.592v9.060h3.611v-5.688h1.982c0.032-0.001 0.070-0.002 0.108-0.002 0.874 0 1.664 0.363 2.226 0.946l0.001 0.001c0.602 0.631 0.902 1.466 0.902 2.505s-0.301 1.875-0.902 2.505c-0.561 0.584-1.349 0.948-2.221 0.948-0.040 0-0.080-0.001-0.12-0.002l0.006 0h-5.592v3.373h5.592c1.897 0 3.483-0.653 4.759-1.959s1.913-2.928 1.913-4.864c0-1.937-0.638-3.558-1.913-4.864-1.276-1.306-2.863-1.959-4.759-1.959zM69.957 0h-5.592v3.373h5.592c0.032-0.001 0.070-0.002 0.108-0.002 0.874 0 1.664 0.363 2.226 0.946l0.001 0.001c0.602 0.631 0.902 1.466 0.903 2.505s-0.301 1.875-0.903 2.505c-0.563 0.584-1.353 0.947-2.227 0.947-0.038 0-0.076-0.001-0.114-0.002l0.005 0h-1.982v-5.686h-3.611v9.059h5.592c1.897 0 3.483-0.653 4.758-1.959s1.914-2.928 1.914-4.864c0-1.937-0.638-3.558-1.914-4.864-1.275-1.307-2.861-1.96-4.758-1.96z"></path>
<path fill="#b1b1b1" style="fill: var(--color3, #b1b1b1)" d="M41.466 18.061c0.038-0.001 0.083-0.002 0.129-0.002 0.631 0 1.233 0.12 1.787 0.337l-0.033-0.012c0.625 0.244 1.161 0.59 1.613 1.023l-0.002-0.002c0.941 0.897 1.413 2.041 1.413 3.432s-0.471 2.534-1.413 3.431c-0.45 0.431-0.986 0.777-1.578 1.010l-0.033 0.011c-0.52 0.206-1.123 0.326-1.753 0.326-0.045 0-0.090-0.001-0.135-0.002l0.007 0h-1.825v4.094h-3.512v-13.647h5.338zM41.466 24.299c0.008 0 0.018 0 0.028 0 0.378 0 0.719-0.157 0.962-0.409l0-0c0.25-0.259 0.404-0.612 0.404-1.001 0-0.018-0-0.037-0.001-0.055l0 0.003c0.001-0.017 0.001-0.037 0.001-0.058 0-0.384-0.154-0.732-0.404-0.985l0 0c-0.244-0.247-0.584-0.4-0.958-0.4-0.011 0-0.023 0-0.034 0l0.002-0h-1.825v2.904h1.825zM55.123 18.061h3.493v13.647h-3.493v-5.245h-3.866v5.245h-3.512v-13.647h3.512v5.049h3.866v-5.049zM72.578 29.943c-1.323 1.273-3.124 2.057-5.108 2.057-0.001 0-0.002 0-0.004 0h0c-1.908 0-3.741-0.738-5.112-2.057-0.663-0.64-1.196-1.409-1.559-2.268l-0.017-0.045c-0.326-0.768-0.516-1.662-0.516-2.599 0-0.052 0.001-0.103 0.002-0.154l-0 0.008c-0.001-0.044-0.002-0.095-0.002-0.147 0-0.938 0.19-1.831 0.533-2.644l-0.017 0.045c0.38-0.904 0.913-1.673 1.574-2.311l0.002-0.002c1.323-1.273 3.124-2.057 5.109-2.057 0.001 0 0.002 0 0.003 0h-0c1.908 0 3.741 0.738 5.112 2.057 0.663 0.64 1.196 1.409 1.559 2.268l0.017 0.045c0.36 0.87 0.535 1.805 0.514 2.746 0.001 0.044 0.002 0.095 0.002 0.146 0 0.938-0.19 1.831-0.533 2.644l0.017-0.045c-0.379 0.904-0.912 1.674-1.574 2.311l-0.002 0.002zM64.817 27.545c0.719 0.757 1.733 1.228 2.856 1.228 0.777 0 1.501-0.225 2.112-0.614l-0.016 0.009c0.76-0.483 1.332-1.203 1.618-2.054l0.008-0.027c0.122-0.359 0.192-0.773 0.192-1.203 0-0.515-0.101-1.007-0.284-1.457l0.009 0.026c-0.347-0.853-0.959-1.538-1.734-1.967l-0.020-0.010c-0.545-0.303-1.195-0.482-1.887-0.482-0.259 0-0.512 0.025-0.757 0.073l0.025-0.004c-0.923 0.179-1.712 0.66-2.278 1.336l-0.005 0.006c-0.559 0.666-0.898 1.533-0.899 2.479v0c-0.001 0.035-0.002 0.077-0.002 0.118 0 0.995 0.406 1.895 1.062 2.543l0 0zM85.029 18.061v3.373h-3.395v10.274h-3.512v-10.275h-3.395v-3.372h10.302zM97.401 29.943c-1.323 1.273-3.124 2.057-5.108 2.057-0.001 0-0.003 0-0.004 0h0c-1.908 0-3.741-0.738-5.112-2.057-0.663-0.64-1.196-1.409-1.559-2.268l-0.017-0.045c-0.326-0.768-0.516-1.662-0.516-2.599 0-0.052 0.001-0.103 0.002-0.154l-0 0.008c-0.001-0.044-0.002-0.095-0.002-0.147 0-0.938 0.19-1.831 0.533-2.644l-0.017 0.045c0.379-0.904 0.912-1.673 1.573-2.311l0.002-0.002c1.323-1.273 3.124-2.057 5.109-2.057 0.001 0 0.002 0 0.003 0h-0c1.908 0 3.742 0.738 5.112 2.057 0.663 0.64 1.196 1.409 1.559 2.268l0.017 0.045c0.36 0.87 0.535 1.805 0.514 2.746 0.001 0.044 0.002 0.095 0.002 0.146 0 0.938-0.19 1.831-0.533 2.644l0.017-0.045c-0.379 0.904-0.912 1.674-1.574 2.311l-0.002 0.002zM89.64 27.545c0.719 0.757 1.733 1.228 2.856 1.228 0.777 0 1.501-0.225 2.112-0.614l-0.016 0.009c0.76-0.483 1.332-1.203 1.619-2.054l0.008-0.027c0.122-0.359 0.192-0.773 0.192-1.203 0-0.515-0.101-1.007-0.284-1.457l0.009 0.026c-0.347-0.853-0.96-1.538-1.734-1.967l-0.020-0.010c-0.545-0.303-1.195-0.482-1.887-0.482-0.259 0-0.512 0.025-0.757 0.073l0.025-0.004c-0.924 0.179-1.713 0.66-2.279 1.336l-0.005 0.006c-0.558 0.666-0.898 1.533-0.898 2.479v0c-0.001 0.037-0.002 0.080-0.002 0.123 0 0.993 0.406 1.891 1.061 2.538l0 0z"></path>
</symbol>

<symbol id="icon-cross" viewBox="0 0 31 32">
<path fill="none" stroke="#fff" style="stroke: var(--color1, #fff)" stroke-linejoin="miter" stroke-linecap="round" stroke-miterlimit="4" stroke-width="2.7826" d="M1.391 1.391l29.217 29.217M30.609 1.391l-29.217 29.217"></path>
</symbol>

<symbol id="icon-camera" viewBox="0 0 32 32">
<path fill="#bbbdc1" style="fill: var(--color1, #bbbdc1)" d="M16.006 20.275c0.019 0 0.042 0 0.065 0 2.358 0 4.269-1.911 4.269-4.269s-1.911-4.269-4.269-4.269c-0.023 0-0.046 0-0.069 0.001l0.003-0c-2.329 0.037-4.203 1.934-4.203 4.268s1.874 4.231 4.2 4.268l0.003 0z"></path>
<path fill="#bbbdc1" style="fill: var(--color1, #bbbdc1)" d="M12.005 2.668l-2.441 2.668h-4.229c-1.471 0.005-2.662 1.196-2.667 2.667v16.007c0 1.468 1.2 2.668 2.667 2.668h21.342c1.467 0 2.667-1.2 2.667-2.668v-16.006c0-1.467-1.2-2.667-2.667-2.667h-4.229l-2.441-2.668h-8.003zM16.006 22.676c-3.683-0.002-6.668-2.987-6.67-6.669v-0c0.002-3.682 2.987-6.667 6.669-6.669h0c3.683 0.001 6.668 2.986 6.67 6.668v0c-0.002 3.683-2.987 6.668-6.669 6.67h-0z"></path>
</symbol>

<symbol id="icon-call" viewBox="0 0 32 32">
<path fill="#4a4a4a" style="fill: var(--color1, #4a4a4a)" d="M26.692 20.517c-1.64 0-3.227-0.267-4.709-0.747-0.125-0.044-0.268-0.069-0.418-0.069-0.364 0-0.692 0.149-0.929 0.389l-0 0-2.093 2.628c-3.775-1.8-7.311-5.203-9.192-9.111l2.602-2.214c0.36-0.374 0.467-0.894 0.32-1.361-0.474-1.39-0.748-2.991-0.748-4.657 0-0.019 0-0.038 0-0.056v0.003c0-0.72-0.6-1.32-1.32-1.32h-4.618c-0.72 0-1.587 0.32-1.587 1.32 0 12.394 10.311 22.692 22.69 22.692 0.948 0 1.321-0.841 1.321-1.574v-4.603c0-0.72-0.601-1.32-1.321-1.32z"></path>
</symbol>

<symbol id="icon-menu" viewBox="0 0 32 32">
<path fill="none" stroke="#e97522" style="stroke: var(--color1, #e97522)" stroke-linejoin="miter" stroke-linecap="round" stroke-miterlimit="4" stroke-width="3" d="M3.955 8.003h23.729M3.955 16.006h23.729M3.955 24.009h23.729"></path>
</symbol>

</defs>
</svg>
